<svg width="40" height="40" viewBox="2 0 36 36" fill="none" xmlns="http://www.w3.org/2000/svg">

<path class="outline" stroke="#fff" stroke-opacity="0.5" stroke-width="2" fill="black" d="
         M 29.6746 13.5638
         H 27.6098
         C 27.3503 10.8376
           25.6147 8.53471
           23.2039 7.43001
         L 24.181 4.97195
         C 24.3262 4.60609
           24.144 4.19277
           23.773 4.04947
         C 23.4019 3.90568
           22.9838 4.086
           22.8386 4.45234
         L 21.8427 6.95738
         C 21.2511 6.81217
           20.6359 6.72628
           19.999 6.72628
         C 19.3612 6.72628
           18.7446 6.81217
           18.152 6.95833
         L 17.1561 4.45281
         C 17.0105 4.08695
           16.5914 3.90616
           16.2218 4.04994
         C 15.8512 4.19372
           15.6686 4.60656
           15.8137 4.97242
         L 16.7913 7.43191
         C 14.3824 8.53709 
           12.6483 10.839
           12.3887 13.5642
         H 10.3244
         C 7.38873 13.5642
           5 15.9227
           5 18.8211
         C 5 21.7195
           7.38825 24.0779
           10.3244 24.0779
         H 12.6156
         C 13.4231 27.0855
           16.0603 29.3632
           19.2791 29.6622
         V 32.2882
         C 19.2791 32.6816
           19.6016 33
           20 33
         C 20.3984 33
           20.7209 32.6816
           20.7209 32.2882
         V 29.6622
         C 23.9397 29.3632
           26.5769 27.0855
           27.3844 24.0779
         H 29.6756
         C 32.6113 24.0779
           35 21.7195
           35 18.8211
         C 35 15.9227
           32.6108 13.5638
           29.6746 13.5638
         Z
         M 19.9995 8.14939
         C 23.4211 8.14939
           26.2045 10.8974
           26.2045 14.2756
         V 15.0666
         H 24.9664
         C 24.5679 15.0666
           24.2454 15.385
           24.2454 15.7784
         C 24.2454 16.1718
           24.5679 16.4902
           24.9664 16.4902
         H 26.2045
         V 18.1088
         H 13.7946
         V 16.4902
         H 22.3229
         C 22.7213 16.4902
           23.0438 16.1718
           23.0438 15.7784
         C 23.0438 15.385
           22.7213 15.0666
           22.3229 15.0666
         H 13.7946
         V 14.2756
         C 13.7946 10.8974
           16.5779 8.14939
           19.9995 8.14939
         Z
         M 12.3527 22.6538
         H 10.3244
         C 8.1837 22.6538
           6.44189 20.9342
           6.44189 18.8206
         C 6.44189 16.707
           8.1837 14.9874
           10.3244 14.9874
         H 12.3527
         V 22.148
         V 22.6538
         Z
         M 19.9995 28.2742
         C 16.724 28.2742
           14.0402 25.7535
           13.8162 22.5746
         H 16.5548
         C 16.9533 22.5746
           17.2758 22.2562
           17.2758 21.8628
         C 17.2758 21.4694
           16.9533 21.151
           16.5548 21.151
         H 13.7946
         V 19.5324
         H 26.2045
         V 21.151
         H 19.4386
         C 19.0402 21.151
           18.7177 21.4694
           18.7177 21.8628
         C 18.7177 22.2562
           19.0402 22.5746
           19.4386 22.5746
         H 26.1828
         C 25.9589 25.7535
           23.275 28.2742
           19.9995 28.2742
         Z
         M 29.6746 22.6538
         H 27.6464
         V 22.148
         V 14.9874
         H 29.6746
         C 31.8153 14.9874
           33.5571 16.707
           33.5571 18.8206
         C 33.5571 20.9342
           31.8153 22.6538
           29.6746 22.6538
         Z
  " />
<rect x="5.5" y="13.75" width="29" height="10" rx="5" fill="#fff" />
<rect x="13" y="7" width="14" height="22" rx="7" fill="#FFC30E"/>
<path fill="black" d="
         M 29.6746 13.5638
         H 27.6098
         C 27.3503 10.8376
           25.6147 8.53471
           23.2039 7.43001
         L 24.181 4.97195
         C 24.3262 4.60609
           24.144 4.19277
           23.773 4.04947
         C 23.4019 3.90568
           22.9838 4.086
           22.8386 4.45234
         L 21.8427 6.95738
         C 21.2511 6.81217
           20.6359 6.72628
           19.999 6.72628
         C 19.3612 6.72628
           18.7446 6.81217
           18.152 6.95833
         L 17.1561 4.45281
         C 17.0105 4.08695
           16.5914 3.90616
           16.2218 4.04994
         C 15.8512 4.19372
           15.6686 4.60656
           15.8137 4.97242
         L 16.7913 7.43191
         C 14.3824 8.53709 
           12.6483 10.839
           12.3887 13.5642
         H 10.3244
         C 7.38873 13.5642
           5 15.9227
           5 18.8211
         C 5 21.7195
           7.38825 24.0779
           10.3244 24.0779
         H 12.6156
         C 13.4231 27.0855
           16.0603 29.3632
           19.2791 29.6622
         V 32.2882
         C 19.2791 32.6816
           19.6016 33
           20 33
         C 20.3984 33
           20.7209 32.6816
           20.7209 32.2882
         V 29.6622
         C 23.9397 29.3632
           26.5769 27.0855
           27.3844 24.0779
         H 29.6756
         C 32.6113 24.0779
           35 21.7195
           35 18.8211
         C 35 15.9227
           32.6108 13.5638
           29.6746 13.5638
         Z
         M 19.9995 8.14939
         C 23.4211 8.14939
           26.2045 10.8974
           26.2045 14.2756
         V 15.0666
         H 24.9664
         C 24.5679 15.0666
           24.2454 15.385
           24.2454 15.7784
         C 24.2454 16.1718
           24.5679 16.4902
           24.9664 16.4902
         H 26.2045
         V 18.1088
         H 13.7946
         V 16.4902
         H 22.3229
         C 22.7213 16.4902
           23.0438 16.1718
           23.0438 15.7784
         C 23.0438 15.385
           22.7213 15.0666
           22.3229 15.0666
         H 13.7946
         V 14.2756
         C 13.7946 10.8974
           16.5779 8.14939
           19.9995 8.14939
         Z
         M 12.3527 22.6538
         H 10.3244
         C 8.1837 22.6538
           6.44189 20.9342
           6.44189 18.8206
         C 6.44189 16.707
           8.1837 14.9874
           10.3244 14.9874
         H 12.3527
         V 22.148
         V 22.6538
         Z
         M 19.9995 28.2742
         C 16.724 28.2742
           14.0402 25.7535
           13.8162 22.5746
         H 16.5548
         C 16.9533 22.5746
           17.2758 22.2562
           17.2758 21.8628
         C 17.2758 21.4694
           16.9533 21.151
           16.5548 21.151
         H 13.7946
         V 19.5324
         H 26.2045
         V 21.151
         H 19.4386
         C 19.0402 21.151
           18.7177 21.4694
           18.7177 21.8628
         C 18.7177 22.2562
           19.0402 22.5746
           19.4386 22.5746
         H 26.1828
         C 25.9589 25.7535
           23.275 28.2742
           19.9995 28.2742
         Z
         M 29.6746 22.6538
         H 27.6464
         V 22.148
         V 14.9874
         H 29.6746
         C 31.8153 14.9874
           33.5571 16.707
           33.5571 18.8206
         C 33.5571 20.9342
           31.8153 22.6538
           29.6746 22.6538
         Z
  " />
</svg>
